<?xml version="1.0" standalone="no"?>
<!DOCTYPE svg PUBLIC "-//W3C//DTD SVG 20010904//EN"
 "http://www.w3.org/TR/2001/REC-SVG-20010904/DTD/svg10.dtd">
<svg version="1.0" xmlns="http://www.w3.org/2000/svg"
 width="1024.000000pt" height="1024.000000pt" viewBox="0 0 1024.000000 1024.000000"
 preserveAspectRatio="xMidYMid meet">

<g transform="translate(0.000000,1024.000000) scale(0.100000,-0.100000)"
fill="#000000">
<path d="M4919 8760 c-138 -17 -383 -72 -496 -111 -65 -22 -183 -71 -262 -110
-246 -119 -441 -258 -628 -448 -296 -300 -493 -668 -569 -1061 -13 -68 -17
-176 -21 -542 -5 -431 -6 -458 -23 -463 -31 -10 -91 -84 -124 -154 -29 -62
-31 -73 -30 -176 0 -84 7 -138 28 -230 41 -174 93 -348 126 -422 81 -179 228
-314 391 -360 53 -15 57 -18 69 -57 26 -87 113 -296 165 -394 62 -117 121
-206 228 -344 l75 -98 7 -452 c4 -268 3 -463 -2 -477 -7 -18 -31 -31 -104 -58
-170 -62 -874 -313 -1129 -403 -181 -64 -214 -85 -247 -157 -43 -93 -19 -177
67 -234 64 -43 102 -37 375 60 127 46 459 164 739 263 280 99 526 191 547 205
21 13 50 43 66 65 l28 41 3 404 c2 221 5 403 7 403 2 0 33 -22 69 -49 256
-194 602 -304 906 -288 264 14 528 105 774 267 l106 70 0 -388 c0 -387 0 -387
24 -438 13 -29 40 -64 60 -79 20 -15 113 -55 213 -90 240 -84 706 -251 1156
-414 178 -64 226 -72 280 -45 74 38 107 88 107 164 0 118 -43 158 -250 233
-207 75 -900 326 -1075 389 -77 28 -146 55 -152 61 -10 7 -13 114 -13 476 l0
466 76 90 c147 176 291 438 380 695 l33 95 61 22 c105 38 152 66 222 132 134
125 189 244 275 586 32 132 37 165 37 275 1 119 0 128 -30 190 -17 36 -54 90
-82 121 l-50 55 -4 435 c-4 403 -6 442 -27 544 -204 988 -1101 1719 -2136
1740 -99 2 -210 0 -246 -5z m566 -399 c737 -162 1307 -710 1461 -1406 16 -69
19 -153 24 -620 l5 -540 43 -6 c30 -4 53 -15 74 -37 50 -49 49 -109 -1 -309
-55 -218 -73 -263 -132 -327 -50 -55 -112 -89 -181 -100 -21 -3 -54 -8 -73
-11 -42 -7 -90 -46 -114 -94 -10 -20 -42 -106 -71 -191 -112 -334 -293 -614
-541 -842 -393 -360 -807 -471 -1209 -324 -175 64 -394 219 -570 402 -220 229
-353 450 -460 766 -32 93 -69 185 -84 206 -30 44 -91 82 -132 82 -53 0 -141
32 -190 69 -71 53 -106 129 -159 346 -25 99 -45 199 -45 223 0 78 43 132 113
141 l42 6 6 525 c6 578 7 585 78 802 66 206 138 343 272 522 294 391 728 652
1215 731 139 22 498 14 629 -14z"/>
<path d="M5020 7459 c-393 -49 -713 -322 -806 -685 -27 -110 -44 -380 -25
-426 l11 -28 208 0 c148 0 211 3 220 12 8 8 12 52 12 133 0 196 45 321 155
431 151 152 363 186 565 91 121 -57 228 -192 259 -327 16 -67 13 -189 -5 -250
-31 -105 -90 -171 -278 -313 -277 -208 -372 -337 -412 -557 -18 -100 -20 -640
-2 -658 15 -15 390 -17 419 -2 18 10 19 24 19 253 0 187 4 256 16 302 30 116
90 191 269 338 191 156 283 250 337 347 155 276 142 633 -33 904 -160 250
-407 401 -714 436 -101 11 -122 11 -215 -1z"/>
<path d="M5002 4424 c-161 -80 -202 -300 -82 -437 101 -115 290 -126 406 -24
154 135 113 381 -76 466 -69 31 -180 29 -248 -5z"/>
</g>
</svg>
