<?xml version="1.0" standalone="no"?>
<!DOCTYPE svg PUBLIC "-//W3C//DTD SVG 20010904//EN"
 "http://www.w3.org/TR/2001/REC-SVG-20010904/DTD/svg10.dtd">
<svg version="1.0" xmlns="http://www.w3.org/2000/svg"
 width="700.000000pt" height="700.000000pt" viewBox="0 0 700.000000 700.000000"
 preserveAspectRatio="xMidYMid meet">
<metadata>
Created by potrace 1.14, written by Peter Selinger 2001-2017
</metadata>
<g transform="translate(0.000000,700.000000) scale(0.100000,-0.100000)"
fill="#000000" stroke="none">
<path d="M3488 5995 c-2 -2 -37 -5 -78 -6 -41 -1 -124 -13 -185 -26 -326 -69
-575 -202 -795 -422 -192 -192 -314 -397 -378 -631 -31 -113 -32 -125 -37
-415 -7 -360 -7 -359 -45 -398 -17 -17 -42 -55 -56 -83 -21 -43 -25 -64 -23
-125 4 -128 75 -395 132 -491 50 -86 132 -156 222 -191 l57 -22 29 -80 c61
-168 151 -326 279 -488 21 -26 22 -36 24 -335 2 -169 1 -314 -1 -322 -5 -19
-38 -34 -208 -93 -72 -25 -175 -62 -230 -82 -55 -20 -143 -52 -195 -70 -180
-63 -285 -102 -317 -119 -94 -48 -96 -179 -4 -226 39 -19 39 -19 110 0 38 11
87 26 108 34 21 8 85 31 143 51 58 20 114 41 125 45 11 5 137 50 280 101 318
112 375 137 403 176 20 28 21 42 23 301 0 150 4 272 8 272 4 0 33 -18 64 -40
30 -22 58 -40 62 -40 4 0 19 -8 33 -18 48 -34 181 -82 280 -103 254 -54 524 7
770 174 24 16 46 27 48 24 3 -3 6 -124 7 -270 2 -263 2 -264 27 -300 28 -41
73 -63 240 -122 58 -20 128 -45 155 -55 28 -10 113 -41 190 -68 77 -28 199
-71 270 -97 251 -91 277 -95 337 -45 31 26 33 32 33 88 -1 99 -5 101 -395 241
-516 186 -592 215 -604 226 -9 9 -12 98 -13 325 l-2 313 63 81 c105 136 158
232 232 416 23 58 48 108 56 112 7 3 43 20 80 37 103 49 199 167 236 291 57
193 73 269 75 353 1 96 -10 132 -62 201 l-49 64 -5 309 c-2 169 -8 322 -11
338 -83 368 -256 645 -554 884 -172 138 -459 267 -662 297 -19 3 -41 7 -49 10
-7 2 -59 7 -115 10 -55 3 -106 7 -113 9 -6 2 -13 2 -15 0z m152 -269 c137 -8
317 -62 460 -139 303 -164 524 -426 623 -744 33 -103 38 -163 42 -541 2 -169
4 -314 4 -323 1 -10 12 -19 29 -22 15 -3 38 -16 51 -28 22 -21 23 -28 18 -93
-6 -77 -56 -263 -81 -301 -41 -62 -100 -98 -180 -110 -68 -11 -95 -44 -141
-177 -77 -219 -173 -382 -313 -529 -209 -221 -428 -331 -653 -330 -218 1 -411
99 -624 315 -146 149 -230 288 -320 528 -61 163 -75 178 -195 202 -50 10 -110
59 -135 111 -27 55 -72 220 -81 299 -5 43 -2 55 15 78 12 15 36 30 55 33 l32
7 3 256 c4 490 8 521 73 702 119 329 405 611 752 741 91 34 237 66 311 68 38
1 71 3 72 5 1 1 22 1 45 0 24 -1 86 -5 138 -8z"/>
<path d="M3361 5084 c-96 -24 -215 -81 -271 -131 -69 -61 -80 -73 -122 -134
-78 -114 -107 -226 -104 -399 l1 -95 147 0 c80 0 148 2 151 5 2 3 7 50 10 105
7 124 32 196 92 262 62 70 129 103 219 110 157 12 282 -67 342 -215 18 -44 22
-71 19 -132 -4 -110 -37 -166 -145 -250 -25 -19 -47 -37 -50 -40 -3 -3 -21
-17 -41 -32 -143 -107 -226 -230 -245 -366 -9 -61 -9 -416 0 -430 9 -14 282
-16 291 -2 4 6 8 84 10 173 3 170 8 213 32 261 21 41 86 108 187 194 147 125
198 186 235 278 91 232 32 499 -148 673 -54 52 -154 119 -191 128 -14 3 -29 9
-35 13 -15 10 -83 28 -136 35 -94 14 -158 11 -248 -11z"/>
<path d="M3505 3044 c-5 -1 -27 -5 -48 -9 -48 -8 -112 -64 -128 -112 -50 -153
78 -294 230 -253 156 42 196 231 70 331 -31 26 -100 49 -124 43z"/>
</g>
</svg>
